<svg xmlns="http://www.w3.org/2000/svg" width="80" height="60" viewBox="0 0 80 60"><path fill="#E9F0F5" d="M80 55.75c0 2.346-1.903 4.25-4.252 4.25H4.252C1.904 60 0 58.096 0 55.75V4.25C0 1.904 1.904 0 4.252 0h71.496C78.098 0 80 1.904 80 4.252V55.75z"/><path fill="#AFC3CE" d="M33.75 16.46c-2.185 0-3.95 1.765-3.95 3.948 0 2.184 1.765 3.948 3.95 3.948 2.182 0 3.947-1.765 3.947-3.948 0-2.182-1.765-3.948-3.948-3.948zm0 5.94c-1.092 0-1.975-.9-1.975-1.99 0-1.092.883-1.96 1.974-1.96 1.09 0 1.973.868 1.973 1.96 0 1.09-.884 1.99-1.974 1.99zm19.74-9.89H29.8c-2.183 0-3.95 1.767-3.95 3.95v23.693c0 2.182 1.767 3.948 3.95 3.948h23.69c2.186 0 3.95-1.766 3.95-3.947V16.46c0-2.183-1.764-3.95-3.95-3.95zM29.8 42.143c-1.092 0-1.975-.9-1.975-1.99v-.93l7.834-6.998 9.935 9.918H29.8zm25.682-1.99c0 1.09-.9 1.99-1.99 1.99h-5.105L41.1 34.76l8.443-8.41 5.94 5.904v7.9zm0-10.722l-5.94-6.035-9.822 9.95-3.997-4.045-7.898 7.257V16.46c0-1.092.883-1.96 1.975-1.96h23.69c1.093 0 1.992.868 1.992 1.96v12.97z"/></svg>